# xmcd CD database file
#
# Track frame offsets:
#	150
#	38042
#	65415
#	83122
#	107372
#	136740
#	162792
#	198787
#	225840
#
# Disc length: 3558 seconds
#
# Revision: 0
# Processed by: cddbd v1.5.2PL0 Copyright (c) Steve Scherf et al.
# Submitted via: CDex 1.70beta2
#
DISCID=5c0de409
DTITLE=Nebraska Jazz Orchestra - Volume V
DYEAR=1996
DGENRE=Jazz
TTITLE0=Better Git It In Your Soul
TTITLE1=The End Of A Love Affair
TTITLE2=Is You Is, Or Is You Ain't My Baby
TTITLE3=Oops!
TTITLE4=Street Smarts
TTITLE5=Carnival
TTITLE6=On The Westside
TTITLE7=Danny Boy
TTITLE8=New Samba
EXTD=YEAR: 1996
EXTT0=
EXTT1=
EXTT2=
EXTT3=
EXTT4=
EXTT5=
EXTT6=
EXTT7=
EXTT8=
PLAYORDER=
